# xmcd
#
# Track frame offsets:
#	150
#	25317
#	45276
#	58504
#	80395
#	106055
#	127219
#	146101
#	171693
#
# Disc length: 2510 seconds
#
# Revision: 2
# Processed by: cddbd v1.5.2PL0 Copyright (c) Steve Scherf et al.
# Submitted via: EZCDAudioConverter 8.0.2.1
#
DISCID=7b09cc09
DTITLE=Khang Việt - Vol 04. Bước Chân Phù Du
DYEAR=2009
DGENRE=World Pop
TTITLE0=Khang Việt - Bước Chân Phù Du
TTITLE1=Khang Việt - Không cần dối gian
TTITLE2=Khang Việt, Quang Mẫn - Hạnh phúc nơi đâu
TTITLE3=Khang Việt - Ngày mai em rời xa
TTITLE4=Khang Việt - Con đường không có tên anh
TTITLE5=Khang Việt - Tượng đài hạnh phúc
TTITLE6=Khang Việt, Phạm Phương Thảo - Vì anh
TTITLE7=Khang Việt - Anh cần em
TTITLE8=Khang Việt, Hồng Ngọc - Trả lại tình yêu
EXTD=
EXTT0=
EXTT1=
EXTT2=
EXTT3=
EXTT4=
EXTT5=
EXTT6=
EXTT7=
EXTT8=
PLAYORDER=
